<?xml version="1.0" encoding="UTF-8" standalone="no"?>
<svg
   xmlns:dc="http://purl.org/dc/elements/1.1/"
   xmlns:cc="http://creativecommons.org/ns#"
   xmlns:rdf="http://www.w3.org/1999/02/22-rdf-syntax-ns#"
   xmlns:svg="http://www.w3.org/2000/svg"
   xmlns="http://www.w3.org/2000/svg"
   xmlns:sodipodi="http://sodipodi.sourceforge.net/DTD/sodipodi-0.dtd"
   xmlns:inkscape="http://www.inkscape.org/namespaces/inkscape"
   sodipodi:docname="logo.svg"
   inkscape:version="1.0 (4035a4fb49, 2020-05-01)"
   id="svg8"
   version="1.1"
   viewBox="0 0 77.828893 16.477568"
   height="16.477568mm"
   width="77.828896mm"
   inkscape:export-filename="C:\Users\berend_kn\git\facq\src\assets\logo.png"
   inkscape:export-xdpi="216.86342"
   inkscape:export-ydpi="216.86342">
  <defs
     id="defs2" />
  <sodipodi:namedview
     inkscape:window-maximized="0"
     inkscape:window-y="23"
     inkscape:window-x="2"
     inkscape:window-height="997"
     inkscape:window-width="1624"
     fit-margin-bottom="0"
     fit-margin-right="0"
     fit-margin-left="0"
     fit-margin-top="0"
     showgrid="false"
     inkscape:document-rotation="0"
     inkscape:current-layer="text843"
     inkscape:document-units="mm"
     inkscape:cy="-62.588758"
     inkscape:cx="202.0719"
     inkscape:zoom="1.4142136"
     inkscape:pageshadow="2"
     inkscape:pageopacity="0.0"
     borderopacity="1.0"
     bordercolor="#666666"
     pagecolor="#ffffff"
     id="base" />
  <metadata
     id="metadata5">
    <rdf:RDF>
      <cc:Work
         rdf:about="">
        <dc:format>image/svg+xml</dc:format>
        <dc:type
           rdf:resource="http://purl.org/dc/dcmitype/StillImage" />
        <dc:title></dc:title>
      </cc:Work>
    </rdf:RDF>
  </metadata>
  <g
     transform="translate(-49.831649,-118.3071)"
     id="layer1"
     inkscape:groupmode="layer"
     inkscape:label="Layer 1">
    <g
       style="font-style:normal;font-variant:normal;font-weight:normal;font-stretch:normal;font-size:10.5833px;line-height:1.25;font-family:ETBembo;-inkscape-font-specification:ETBembo;letter-spacing:0px;word-spacing:0px;fill:#000000;fill-opacity:1;stroke:none;stroke-width:0.264583"
       id="text835"
       aria-label="FACQ">
      <path
         id="path2154"
         style="font-style:normal;font-variant:normal;font-weight:normal;font-stretch:normal;font-family:'Roboto Condensed';-inkscape-font-specification:'Roboto Condensed, ';stroke-width:0.264583"
         d="m 53.477059,126.03566 h -2.542473 v 3.32278 h -0.945675 v -7.52406 h 3.917061 v 0.81648 h -2.971386 v 2.57348 h 2.542473 z" />
      <path
         id="path2156"
         style="font-style:normal;font-variant:normal;font-weight:normal;font-stretch:normal;font-family:'Roboto Condensed';-inkscape-font-specification:'Roboto Condensed, ';stroke-width:0.264583"
         d="M 57.714513,127.39475 H 55.17204 l -0.583941,1.96369 h -0.971514 l 2.423617,-7.52406 h 0.811317 l 2.428785,7.52406 H 58.30879 Z m -2.294427,-0.81649 h 2.051548 l -1.028357,-3.42097 z" />
      <path
         id="path2158"
         style="font-style:normal;font-variant:normal;font-weight:normal;font-stretch:normal;font-family:'Roboto Condensed';-inkscape-font-specification:'Roboto Condensed, ';stroke-width:0.264583"
         d="m 64.959525,126.971 q -0.06201,1.20923 -0.682127,1.85001 -0.614947,0.64079 -1.74149,0.64079 -1.13171,0 -1.798334,-0.85783 -0.666624,-0.86299 -0.666624,-2.33577 v -1.36425 q 0,-1.46761 0.682127,-2.32026 0.687294,-0.85266 1.870681,-0.85266 1.090369,0 1.684646,0.65629 0.599445,0.65112 0.651121,1.86551 h -0.956011 q -0.06201,-0.91984 -0.387572,-1.31258 -0.32556,-0.39274 -0.992184,-0.39274 -0.769977,0 -1.183387,0.60461 -0.41341,0.59945 -0.41341,1.76217 v 1.37975 q 0,1.14205 0.382404,1.75183 0.387572,0.60978 1.126543,0.60978 0.738971,0 1.064531,-0.3669 0.325561,-0.36691 0.403075,-1.31775 z" />
      <path
         id="path2160"
         style="font-style:normal;font-variant:normal;font-weight:normal;font-stretch:normal;font-family:'Roboto Condensed';-inkscape-font-specification:'Roboto Condensed, ';stroke-width:0.264583"
         d="m 71.088331,126.2527 q 0,0.99218 -0.268717,1.67948 -0.263549,0.68213 -0.754473,1.06453 l 1.121375,1.00769 -0.640786,0.62528 -1.353918,-1.23506 q -0.325561,0.0672 -0.630451,0.0672 -1.173051,0 -1.85001,-0.82166 -0.671791,-0.82682 -0.687294,-2.32026 v -1.36942 q 0,-1.51928 0.666624,-2.36677 0.666623,-0.85266 1.860345,-0.85266 1.204057,0 1.865514,0.83199 0.661456,0.82682 0.671791,2.3461 z m -0.945676,-1.31258 q 0,-1.19372 -0.392739,-1.77249 -0.387572,-0.58394 -1.19889,-0.58394 -0.775144,0 -1.178219,0.5891 -0.397907,0.58911 -0.403075,1.73633 v 1.34358 q 0,1.15755 0.397908,1.76216 0.403075,0.60461 1.193721,0.60461 0.78548,0 1.173052,-0.54776 0.387572,-0.54777 0.408242,-1.68982 z" />
    </g>
    <text
       xml:space="preserve"
       style="font-style:normal;font-variant:normal;font-weight:normal;font-stretch:normal;font-size:10.5833px;line-height:1.25;font-family:ETBembo;-inkscape-font-specification:ETBembo;letter-spacing:0px;word-spacing:0px;fill:#aa0000;fill-opacity:1;stroke:none;stroke-width:0.264583"
       x="71.619926"
       y="124.53925"
       id="text839"><tspan
         sodipodi:role="line"
         id="tspan837"
         x="71.619926"
         y="124.53925"
         style="font-style:normal;font-variant:normal;font-weight:bold;font-stretch:normal;font-family:'Arial Narrow';-inkscape-font-specification:'Arial Narrow, ';fill:#aa0000;stroke-width:0.264583">+</tspan></text>
    <g
       style="font-style:normal;font-variant:normal;font-weight:normal;font-stretch:normal;font-size:4.20242px;line-height:1.25;font-family:ETBembo;-inkscape-font-specification:ETBembo;letter-spacing:0px;word-spacing:0px;fill:#000000;fill-opacity:1;stroke:none;stroke-width:0.105061"
       id="text843"
       aria-label="your First Aid for Committee Questions">
      <path
         id="path2087"
         style="font-style:normal;font-variant:normal;font-weight:normal;font-stretch:normal;font-family:'Roboto Condensed';-inkscape-font-specification:'Roboto Condensed, ';stroke-width:0.105061"
         d="m 50.638071,133.28468 0.404236,-1.61695 h 0.385769 l -0.726395,2.53418 q -0.08208,0.28522 -0.231871,0.43296 -0.149794,0.14979 -0.340626,0.14979 -0.07387,0 -0.188781,-0.0328 v -0.30779 l 0.08003,0.008 q 0.158001,0 0.246235,-0.0759 0.09029,-0.0739 0.14569,-0.25855 l 0.07182,-0.24828 -0.652524,-2.20176 h 0.396029 z" />
      <path
         id="path2089"
         style="font-style:normal;font-variant:normal;font-weight:normal;font-stretch:normal;font-family:'Roboto Condensed';-inkscape-font-specification:'Roboto Condensed, ';stroke-width:0.105061"
         d="m 51.670208,132.67524 q 0,-0.48426 0.233924,-0.76538 0.235976,-0.28317 0.621745,-0.28317 0.385769,0 0.619692,0.27496 0.235976,0.27497 0.242132,0.74897 v 0.23392 q 0,0.48222 -0.233924,0.76334 -0.233923,0.28111 -0.623796,0.28111 -0.385769,0 -0.619693,-0.27291 -0.231872,-0.27291 -0.24008,-0.7387 z m 0.363198,0.2093 q 0,0.34268 0.133377,0.53967 0.13543,0.19494 0.363198,0.19494 0.480159,0 0.494523,-0.69357 v -0.25034 q 0,-0.34062 -0.13543,-0.53761 -0.135429,-0.19904 -0.363197,-0.19904 -0.223664,0 -0.359094,0.19904 -0.133377,0.19699 -0.133377,0.53556 z" />
      <path
         id="path2091"
         style="font-style:normal;font-variant:normal;font-weight:normal;font-stretch:normal;font-family:'Roboto Condensed';-inkscape-font-specification:'Roboto Condensed, ';stroke-width:0.105061"
         d="m 54.988232,133.69302 q -0.180572,0.23597 -0.527354,0.23597 -0.301639,0 -0.455536,-0.20724 -0.153897,-0.2093 -0.155949,-0.60739 v -1.44663 h 0.361145 v 1.41996 q 0,0.51915 0.311899,0.51915 0.330366,0 0.455535,-0.29549 v -1.64362 h 0.363198 v 2.22022 h -0.34473 z" />
      <path
         id="path2093"
         style="font-style:normal;font-variant:normal;font-weight:normal;font-stretch:normal;font-family:'Roboto Condensed';-inkscape-font-specification:'Roboto Condensed, ';stroke-width:0.105061"
         d="m 56.808323,132.00836 q -0.07592,-0.0144 -0.164157,-0.0144 -0.279067,0 -0.389873,0.30575 v 1.58821 h -0.363197 v -2.22022 h 0.352938 l 0.0062,0.22572 q 0.145689,-0.26676 0.412444,-0.26676 0.08618,0 0.143637,0.0287 z" />
      <path
         id="path2095"
         style="font-style:normal;font-variant:normal;font-weight:normal;font-stretch:normal;font-family:'Roboto Condensed';-inkscape-font-specification:'Roboto Condensed, ';stroke-width:0.105061"
         d="m 59.568213,132.56854 h -1.009566 v 1.31941 h -0.375509 v -2.98765 h 1.555388 v 0.32421 h -1.179879 v 1.02187 h 1.009566 z" />
      <path
         id="path2097"
         style="font-style:normal;font-variant:normal;font-weight:normal;font-stretch:normal;font-family:'Roboto Condensed';-inkscape-font-specification:'Roboto Condensed, ';stroke-width:0.105061"
         d="m 60.542896,133.88795 h -0.363198 v -2.22022 h 0.363198 z m 0.02873,-2.80913 q 0,0.0923 -0.0513,0.15389 -0.0513,0.0616 -0.155949,0.0616 -0.102598,0 -0.153897,-0.0616 -0.0513,-0.0616 -0.0513,-0.15389 0,-0.0923 0.0513,-0.15595 0.0513,-0.0636 0.153897,-0.0636 0.102598,0 0.153897,0.0657 0.05335,0.0636 0.05335,0.1539 z" />
      <path
         id="path2099"
         style="font-style:normal;font-variant:normal;font-weight:normal;font-stretch:normal;font-family:'Roboto Condensed';-inkscape-font-specification:'Roboto Condensed, ';stroke-width:0.105061"
         d="m 62.028518,132.00836 q -0.07592,-0.0144 -0.164157,-0.0144 -0.279067,0 -0.389873,0.30575 v 1.58821 H 61.11129 v -2.22022 h 0.352938 l 0.0062,0.22572 q 0.145689,-0.26676 0.412444,-0.26676 0.08618,0 0.143638,0.0287 z" />
      <path
         id="path2101"
         style="font-style:normal;font-variant:normal;font-weight:normal;font-stretch:normal;font-family:'Roboto Condensed';-inkscape-font-specification:'Roboto Condensed, ';stroke-width:0.105061"
         d="m 63.471047,133.31956 q 0,-0.11696 -0.08823,-0.20109 -0.08823,-0.0841 -0.340626,-0.19699 -0.293431,-0.12107 -0.414497,-0.20725 -0.119014,-0.0862 -0.178521,-0.19493 -0.05951,-0.11081 -0.05951,-0.26266 0,-0.27085 0.196989,-0.44938 0.19904,-0.18057 0.506835,-0.18057 0.32421,0 0.521198,0.18878 0.196989,0.18878 0.196989,0.48427 h -0.361146 q 0,-0.1498 -0.100546,-0.25445 -0.100546,-0.1067 -0.256495,-0.1067 -0.160053,0 -0.252392,0.0841 -0.09029,0.0821 -0.09029,0.22161 0,0.11081 0.06566,0.17852 0.06771,0.0677 0.322158,0.17852 0.404237,0.15801 0.549926,0.30985 0.145689,0.14979 0.145689,0.38167 0,0.28932 -0.19904,0.46374 -0.19904,0.17236 -0.53351,0.17236 -0.346782,0 -0.562238,-0.19904 Q 62.324,133.53091 62.324,133.22517 h 0.365249 q 0.0062,0.18468 0.112858,0.28933 0.106702,0.10465 0.299587,0.10465 0.180572,0 0.274963,-0.08 0.09439,-0.0821 0.09439,-0.21956 z" />
      <path
         id="path2103"
         style="font-style:normal;font-variant:normal;font-weight:normal;font-stretch:normal;font-family:'Roboto Condensed';-inkscape-font-specification:'Roboto Condensed, ';stroke-width:0.105061"
         d="m 64.7802,131.13012 v 0.53761 h 0.33447 v 0.29343 H 64.7802 v 1.37687 q 0,0.13132 0.04309,0.19904 0.04309,0.0677 0.147741,0.0677 0.07182,0 0.14569,-0.0246 l -0.0041,0.30779 q -0.123118,0.041 -0.252392,0.041 -0.215456,0 -0.328314,-0.15389 -0.112858,-0.1539 -0.112858,-0.43502 v -1.37892 H 64.08048 v -0.29343 h 0.338574 v -0.53761 z" />
      <path
         id="path2105"
         style="font-style:normal;font-variant:normal;font-weight:normal;font-stretch:normal;font-family:'Roboto Condensed';-inkscape-font-specification:'Roboto Condensed, ';stroke-width:0.105061"
         d="m 67.948431,133.10821 h -1.009565 l -0.231872,0.77974 h -0.385769 l 0.96237,-2.98765 h 0.322159 l 0.964422,2.98765 H 68.184407 Z M 67.03736,132.784 h 0.814629 l -0.408341,-1.3584 z" />
      <path
         id="path2107"
         style="font-style:normal;font-variant:normal;font-weight:normal;font-stretch:normal;font-family:'Roboto Condensed';-inkscape-font-specification:'Roboto Condensed, ';stroke-width:0.105061"
         d="m 69.31709,133.88795 h -0.363197 v -2.22022 h 0.363197 z m 0.02873,-2.80913 q 0,0.0923 -0.0513,0.15389 -0.0513,0.0616 -0.155949,0.0616 -0.102598,0 -0.153898,-0.0616 -0.0513,-0.0616 -0.0513,-0.15389 0,-0.0923 0.0513,-0.15595 0.0513,-0.0636 0.153898,-0.0636 0.102598,0 0.153897,0.0657 0.05335,0.0636 0.05335,0.1539 z" />
      <path
         id="path2109"
         style="font-style:normal;font-variant:normal;font-weight:normal;font-stretch:normal;font-family:'Roboto Condensed';-inkscape-font-specification:'Roboto Condensed, ';stroke-width:0.105061"
         d="m 69.809561,132.6773 q 0,-0.51299 0.190832,-0.7818 0.192885,-0.26881 0.551978,-0.26881 0.318054,0 0.496575,0.25855 v -1.1491 h 0.363198 v 3.15181 h -0.332418 l -0.01847,-0.23802 q -0.178521,0.27906 -0.510939,0.27906 -0.34473,0 -0.541718,-0.26675 -0.194937,-0.26881 -0.19904,-0.75718 z m 0.363197,0.20724 q 0,0.37346 0.110806,0.54993 0.110806,0.17442 0.361145,0.17442 0.27086,0 0.404237,-0.27291 v -1.12038 q -0.139533,-0.26675 -0.402185,-0.26675 -0.250339,0 -0.361145,0.17647 -0.110806,0.17442 -0.112858,0.53761 z" />
      <path
         id="path2111"
         style="font-style:normal;font-variant:normal;font-weight:normal;font-stretch:normal;font-family:'Roboto Condensed';-inkscape-font-specification:'Roboto Condensed, ';stroke-width:0.105061"
         d="m 73.090651,133.88795 v -1.92679 h -0.289327 v -0.29343 h 0.289327 v -0.25649 q 0.0062,-0.33858 0.170313,-0.52736 0.166209,-0.19083 0.467847,-0.19083 0.108754,0 0.21956,0.0349 l -0.01847,0.3078 q -0.07797,-0.0185 -0.166209,-0.0185 -0.309847,0 -0.309847,0.44117 v 0.2093 h 0.379613 v 0.29343 h -0.379613 v 1.92679 z" />
      <path
         id="path2113"
         style="font-style:normal;font-variant:normal;font-weight:normal;font-stretch:normal;font-family:'Roboto Condensed';-inkscape-font-specification:'Roboto Condensed, ';stroke-width:0.105061"
         d="m 74.184347,132.67524 q 0,-0.48426 0.233924,-0.76538 0.235975,-0.28317 0.621744,-0.28317 0.38577,0 0.619693,0.27496 0.235976,0.27497 0.242132,0.74897 v 0.23392 q 0,0.48222 -0.233924,0.76334 -0.233924,0.28111 -0.623797,0.28111 -0.385769,0 -0.619692,-0.27291 -0.231872,-0.27291 -0.24008,-0.7387 z m 0.363197,0.2093 q 0,0.34268 0.133378,0.53967 0.135429,0.19494 0.363197,0.19494 0.48016,0 0.494523,-0.69357 v -0.25034 q 0,-0.34062 -0.135429,-0.53761 -0.13543,-0.19904 -0.363198,-0.19904 -0.223664,0 -0.359093,0.19904 -0.133378,0.19699 -0.133378,0.53556 z" />
      <path
         id="path2115"
         style="font-style:normal;font-variant:normal;font-weight:normal;font-stretch:normal;font-family:'Roboto Condensed';-inkscape-font-specification:'Roboto Condensed, ';stroke-width:0.105061"
         d="m 77.286914,132.00836 q -0.07592,-0.0144 -0.164157,-0.0144 -0.279067,0 -0.389873,0.30575 v 1.58821 h -0.363198 v -2.22022 h 0.352938 l 0.0062,0.22572 q 0.145689,-0.26676 0.412445,-0.26676 0.08618,0 0.143637,0.0287 z" />
      <path
         id="path2117"
         style="font-style:normal;font-variant:normal;font-weight:normal;font-stretch:normal;font-family:'Roboto Condensed';-inkscape-font-specification:'Roboto Condensed, ';stroke-width:0.105061"
         d="m 80.535171,132.93995 q -0.02462,0.48016 -0.270859,0.7346 -0.244183,0.25444 -0.691511,0.25444 -0.44938,0 -0.714083,-0.34062 -0.264704,-0.34268 -0.264704,-0.92749 v -0.54172 q 0,-0.58275 0.27086,-0.92133 0.272911,-0.33857 0.74281,-0.33857 0.432964,0 0.66894,0.2606 0.238028,0.25854 0.258547,0.74076 h -0.379613 q -0.02462,-0.36525 -0.153897,-0.5212 -0.129274,-0.15595 -0.393977,-0.15595 -0.305742,0 -0.469899,0.24008 -0.164157,0.23802 -0.164157,0.69972 v 0.54787 q 0,0.45348 0.151845,0.69562 0.153897,0.24213 0.447328,0.24213 0.29343,0 0.422704,-0.14569 0.129274,-0.14569 0.160053,-0.52325 z" />
      <path
         id="path2119"
         style="font-style:normal;font-variant:normal;font-weight:normal;font-stretch:normal;font-family:'Roboto Condensed';-inkscape-font-specification:'Roboto Condensed, ';stroke-width:0.105061"
         d="m 80.914785,132.67524 q 0,-0.48426 0.233924,-0.76538 0.235976,-0.28317 0.621745,-0.28317 0.385769,0 0.619693,0.27496 0.235975,0.27497 0.242131,0.74897 v 0.23392 q 0,0.48222 -0.233924,0.76334 -0.233923,0.28111 -0.623796,0.28111 -0.385769,0 -0.619693,-0.27291 -0.231872,-0.27291 -0.24008,-0.7387 z m 0.363198,0.2093 q 0,0.34268 0.133377,0.53967 0.13543,0.19494 0.363198,0.19494 0.480159,0 0.494523,-0.69357 v -0.25034 q 0,-0.34062 -0.13543,-0.53761 -0.135429,-0.19904 -0.363197,-0.19904 -0.223664,0 -0.359094,0.19904 -0.133377,0.19699 -0.133377,0.53556 z" />
      <path
         id="path2121"
         style="font-style:normal;font-variant:normal;font-weight:normal;font-stretch:normal;font-family:'Roboto Condensed';-inkscape-font-specification:'Roboto Condensed, ';stroke-width:0.105061"
         d="m 83.442803,131.66773 0.0082,0.2052 q 0.203145,-0.24624 0.535563,-0.24624 0.371405,0 0.519146,0.32216 0.209301,-0.32216 0.582758,-0.32216 0.613537,0 0.627901,0.76538 v 1.49588 h -0.361146 v -1.46099 q 0,-0.24213 -0.08618,-0.3591 -0.08618,-0.11901 -0.291379,-0.11901 -0.164157,0 -0.266755,0.12722 -0.102598,0.12722 -0.119014,0.32421 v 1.48767 h -0.36525 v -1.47741 q -0.0062,-0.46169 -0.375509,-0.46169 -0.274963,0 -0.387821,0.27496 v 1.66414 h -0.361145 v -2.22022 z" />
      <path
         id="path2123"
         style="font-style:normal;font-variant:normal;font-weight:normal;font-stretch:normal;font-family:'Roboto Condensed';-inkscape-font-specification:'Roboto Condensed, ';stroke-width:0.105061"
         d="m 86.602825,131.66773 0.0082,0.2052 q 0.203144,-0.24624 0.535562,-0.24624 0.371406,0 0.519147,0.32216 0.2093,-0.32216 0.582758,-0.32216 0.613537,0 0.6279,0.76538 v 1.49588 h -0.361145 v -1.46099 q 0,-0.24213 -0.08618,-0.3591 -0.08618,-0.11901 -0.291378,-0.11901 -0.164157,0 -0.266756,0.12722 -0.102598,0.12722 -0.119013,0.32421 v 1.48767 h -0.36525 v -1.47741 q -0.0062,-0.46169 -0.375509,-0.46169 -0.274963,0 -0.387821,0.27496 v 1.66414 h -0.361146 v -2.22022 z" />
      <path
         id="path2125"
         style="font-style:normal;font-variant:normal;font-weight:normal;font-stretch:normal;font-family:'Roboto Condensed';-inkscape-font-specification:'Roboto Condensed, ';stroke-width:0.105061"
         d="m 89.812095,133.88795 h -0.363197 v -2.22022 h 0.363197 z m 0.02873,-2.80913 q 0,0.0923 -0.0513,0.15389 -0.0513,0.0616 -0.15595,0.0616 -0.102598,0 -0.153897,-0.0616 -0.0513,-0.0616 -0.0513,-0.15389 0,-0.0923 0.0513,-0.15595 0.0513,-0.0636 0.153897,-0.0636 0.102598,0 0.153898,0.0657 0.05335,0.0636 0.05335,0.1539 z" />
      <path
         id="path2127"
         style="font-style:normal;font-variant:normal;font-weight:normal;font-stretch:normal;font-family:'Roboto Condensed';-inkscape-font-specification:'Roboto Condensed, ';stroke-width:0.105061"
         d="m 90.856545,131.13012 v 0.53761 h 0.33447 v 0.29343 h -0.33447 v 1.37687 q 0,0.13132 0.04309,0.19904 0.04309,0.0677 0.147742,0.0677 0.07182,0 0.145689,-0.0246 l -0.0041,0.30779 q -0.123118,0.041 -0.252391,0.041 -0.215456,0 -0.328314,-0.15389 -0.112858,-0.1539 -0.112858,-0.43502 v -1.37892 h -0.338574 v -0.29343 H 90.4954 v -0.53761 z" />
      <path
         id="path2129"
         style="font-style:normal;font-variant:normal;font-weight:normal;font-stretch:normal;font-family:'Roboto Condensed';-inkscape-font-specification:'Roboto Condensed, ';stroke-width:0.105061"
         d="m 92.095933,131.13012 v 0.53761 h 0.33447 v 0.29343 h -0.33447 v 1.37687 q 0,0.13132 0.04309,0.19904 0.04309,0.0677 0.147741,0.0677 0.07182,0 0.14569,-0.0246 l -0.0041,0.30779 q -0.123118,0.041 -0.252392,0.041 -0.215456,0 -0.328314,-0.15389 -0.112858,-0.1539 -0.112858,-0.43502 v -1.37892 h -0.338574 v -0.29343 h 0.338574 v -0.53761 z" />
      <path
         id="path2131"
         style="font-style:normal;font-variant:normal;font-weight:normal;font-stretch:normal;font-family:'Roboto Condensed';-inkscape-font-specification:'Roboto Condensed, ';stroke-width:0.105061"
         d="m 93.653371,133.92899 q -0.414497,0 -0.636109,-0.24623 -0.221612,-0.24829 -0.225716,-0.7264 v -0.2688 q 0,-0.49658 0.215456,-0.7777 0.217508,-0.28317 0.605329,-0.28317 0.389873,0 0.582758,0.24829 0.192884,0.24829 0.196988,0.77359 v 0.23803 h -1.239385 v 0.0513 q 0,0.35704 0.133377,0.51914 0.13543,0.16211 0.387821,0.16211 0.160053,0 0.281119,-0.0595 0.123118,-0.0616 0.22982,-0.19288 l 0.188781,0.22982 q -0.235976,0.33241 -0.720239,0.33241 z m -0.04104,-1.9904 q -0.225716,0 -0.33447,0.15595 -0.108754,0.1539 -0.123117,0.48016 h 0.874136 v -0.0493 q -0.01436,-0.316 -0.11491,-0.45143 -0.09849,-0.13543 -0.301639,-0.13543 z" />
      <path
         id="path2133"
         style="font-style:normal;font-variant:normal;font-weight:normal;font-stretch:normal;font-family:'Roboto Condensed';-inkscape-font-specification:'Roboto Condensed, ';stroke-width:0.105061"
         d="m 95.623257,133.92899 q -0.414496,0 -0.636108,-0.24623 -0.221612,-0.24829 -0.225716,-0.7264 v -0.2688 q 0,-0.49658 0.215456,-0.7777 0.217508,-0.28317 0.605329,-0.28317 0.389873,0 0.582758,0.24829 0.192884,0.24829 0.196988,0.77359 v 0.23803 h -1.239386 v 0.0513 q 0,0.35704 0.133378,0.51914 0.13543,0.16211 0.387821,0.16211 0.160053,0 0.281119,-0.0595 0.123118,-0.0616 0.22982,-0.19288 l 0.18878,0.22982 q -0.235975,0.33241 -0.720239,0.33241 z m -0.04104,-1.9904 q -0.225716,0 -0.33447,0.15595 -0.108754,0.1539 -0.123118,0.48016 h 0.874137 v -0.0493 q -0.01436,-0.316 -0.11491,-0.45143 -0.09849,-0.13543 -0.301639,-0.13543 z" />
      <path
         id="path2135"
         style="font-style:normal;font-variant:normal;font-weight:normal;font-stretch:normal;font-family:'Roboto Condensed';-inkscape-font-specification:'Roboto Condensed, ';stroke-width:0.105061"
         d="m 99.737443,132.65472 q 0,0.39398 -0.106703,0.66689 -0.10465,0.27086 -0.299586,0.42271 l 0.445276,0.40013 -0.254444,0.24829 -0.537614,-0.49042 q -0.129274,0.0267 -0.250339,0.0267 -0.465796,0 -0.734603,-0.32626 -0.266755,-0.32831 -0.272911,-0.92133 v -0.54377 q 0,-0.60328 0.264703,-0.9398 0.264703,-0.33857 0.738707,-0.33857 0.478107,0 0.740758,0.33036 0.262652,0.32832 0.266756,0.93159 z m -0.37551,-0.52119 q 0,-0.47401 -0.155949,-0.70383 -0.153897,-0.23187 -0.476055,-0.23187 -0.307795,0 -0.467848,0.23392 -0.158001,0.23393 -0.160053,0.68946 v 0.53351 q 0,0.45964 0.158001,0.69972 0.160053,0.24008 0.474004,0.24008 0.311898,0 0.465795,-0.2175 0.153897,-0.21751 0.162105,-0.671 z" />
      <path
         id="path2137"
         style="font-style:normal;font-variant:normal;font-weight:normal;font-stretch:normal;font-family:'Roboto Condensed';-inkscape-font-specification:'Roboto Condensed, ';stroke-width:0.105061"
         d="m 101.42005,133.69302 q -0.18057,0.23597 -0.52735,0.23597 -0.30164,0 -0.45554,-0.20724 -0.15389,-0.2093 -0.15595,-0.60739 v -1.44663 h 0.36115 v 1.41996 q 0,0.51915 0.3119,0.51915 0.33036,0 0.45553,-0.29549 v -1.64362 h 0.3632 v 2.22022 h -0.34473 z" />
      <path
         id="path2139"
         style="font-style:normal;font-variant:normal;font-weight:normal;font-stretch:normal;font-family:'Roboto Condensed';-inkscape-font-specification:'Roboto Condensed, ';stroke-width:0.105061"
         d="m 103.11702,133.92899 q -0.41449,0 -0.6361,-0.24623 -0.22162,-0.24829 -0.22572,-0.7264 v -0.2688 q 0,-0.49658 0.21546,-0.7777 0.2175,-0.28317 0.60532,-0.28317 0.38988,0 0.58276,0.24829 0.19289,0.24829 0.19699,0.77359 v 0.23803 h -1.23938 v 0.0513 q 0,0.35704 0.13337,0.51914 0.13543,0.16211 0.38782,0.16211 0.16006,0 0.28112,-0.0595 0.12312,-0.0616 0.22982,-0.19288 l 0.18878,0.22982 q -0.23597,0.33241 -0.72024,0.33241 z m -0.041,-1.9904 q -0.22571,0 -0.33447,0.15595 -0.10875,0.1539 -0.12311,0.48016 h 0.87413 v -0.0493 q -0.0144,-0.316 -0.11491,-0.45143 -0.0985,-0.13543 -0.30164,-0.13543 z" />
      <path
         id="path2141"
         style="font-style:normal;font-variant:normal;font-weight:normal;font-stretch:normal;font-family:'Roboto Condensed';-inkscape-font-specification:'Roboto Condensed, ';stroke-width:0.105061"
         d="m 105.37213,133.31956 q 0,-0.11696 -0.0882,-0.20109 -0.0882,-0.0841 -0.34063,-0.19699 -0.29343,-0.12107 -0.4145,-0.20725 -0.11901,-0.0862 -0.17852,-0.19493 -0.0595,-0.11081 -0.0595,-0.26266 0,-0.27085 0.19698,-0.44938 0.19904,-0.18057 0.50684,-0.18057 0.32421,0 0.5212,0.18878 0.19699,0.18878 0.19699,0.48427 h -0.36115 q 0,-0.1498 -0.10055,-0.25445 -0.10054,-0.1067 -0.25649,-0.1067 -0.16005,0 -0.25239,0.0841 -0.0903,0.0821 -0.0903,0.22161 0,0.11081 0.0657,0.17852 0.0677,0.0677 0.32216,0.17852 0.40424,0.15801 0.54993,0.30985 0.14569,0.14979 0.14569,0.38167 0,0.28932 -0.19904,0.46374 -0.19904,0.17236 -0.53351,0.17236 -0.34679,0 -0.56224,-0.19904 -0.21546,-0.19904 -0.21546,-0.50478 h 0.36525 q 0.006,0.18468 0.11286,0.28933 0.1067,0.10465 0.29959,0.10465 0.18057,0 0.27496,-0.08 0.0944,-0.0821 0.0944,-0.21956 z" />
      <path
         id="path2143"
         style="font-style:normal;font-variant:normal;font-weight:normal;font-stretch:normal;font-family:'Roboto Condensed';-inkscape-font-specification:'Roboto Condensed, ';stroke-width:0.105061"
         d="m 106.68128,131.13012 v 0.53761 h 0.33447 v 0.29343 h -0.33447 v 1.37687 q 0,0.13132 0.0431,0.19904 0.0431,0.0677 0.14775,0.0677 0.0718,0 0.14568,-0.0246 l -0.004,0.30779 q -0.12312,0.041 -0.25239,0.041 -0.21546,0 -0.32831,-0.15389 -0.11286,-0.1539 -0.11286,-0.43502 v -1.37892 h -0.33858 v -0.29343 h 0.33858 v -0.53761 z" />
      <path
         id="path2145"
         style="font-style:normal;font-variant:normal;font-weight:normal;font-stretch:normal;font-family:'Roboto Condensed';-inkscape-font-specification:'Roboto Condensed, ';stroke-width:0.105061"
         d="m 107.83654,133.88795 h -0.3632 v -2.22022 h 0.3632 z m 0.0287,-2.80913 q 0,0.0923 -0.0513,0.15389 -0.0513,0.0616 -0.15595,0.0616 -0.1026,0 -0.1539,-0.0616 -0.0513,-0.0616 -0.0513,-0.15389 0,-0.0923 0.0513,-0.15595 0.0513,-0.0636 0.1539,-0.0636 0.1026,0 0.1539,0.0657 0.0533,0.0636 0.0533,0.1539 z" />
      <path
         id="path2147"
         style="font-style:normal;font-variant:normal;font-weight:normal;font-stretch:normal;font-family:'Roboto Condensed';-inkscape-font-specification:'Roboto Condensed, ';stroke-width:0.105061"
         d="m 108.32901,132.67524 q 0,-0.48426 0.23393,-0.76538 0.23597,-0.28317 0.62174,-0.28317 0.38577,0 0.61969,0.27496 0.23598,0.27497 0.24213,0.74897 v 0.23392 q 0,0.48222 -0.23392,0.76334 -0.23392,0.28111 -0.6238,0.28111 -0.38576,0 -0.61969,-0.27291 -0.23187,-0.27291 -0.24008,-0.7387 z m 0.3632,0.2093 q 0,0.34268 0.13338,0.53967 0.13543,0.19494 0.36319,0.19494 0.48016,0 0.49453,-0.69357 v -0.25034 q 0,-0.34062 -0.13543,-0.53761 -0.13543,-0.19904 -0.3632,-0.19904 -0.22366,0 -0.35909,0.19904 -0.13338,0.19699 -0.13338,0.53556 z" />
      <path
         id="path2149"
         style="font-style:normal;font-variant:normal;font-weight:normal;font-stretch:normal;font-family:'Roboto Condensed';-inkscape-font-specification:'Roboto Condensed, ';stroke-width:0.105061"
         d="m 110.85703,131.66773 0.0103,0.24008 q 0.21135,-0.28112 0.53967,-0.28112 0.58891,0 0.59712,0.7859 v 1.47536 h -0.36115 v -1.45894 q 0,-0.2606 -0.0882,-0.36935 -0.0862,-0.11081 -0.2606,-0.11081 -0.13543,0 -0.24419,0.0903 -0.1067,0.0903 -0.17236,0.23597 v 1.61284 h -0.3632 v -2.22022 z" />
      <path
         id="path2151"
         style="font-style:normal;font-variant:normal;font-weight:normal;font-stretch:normal;font-family:'Roboto Condensed';-inkscape-font-specification:'Roboto Condensed, ';stroke-width:0.105061"
         d="m 113.62923,133.31956 q 0,-0.11696 -0.0882,-0.20109 -0.0882,-0.0841 -0.34062,-0.19699 -0.29343,-0.12107 -0.4145,-0.20725 -0.11901,-0.0862 -0.17852,-0.19493 -0.0595,-0.11081 -0.0595,-0.26266 0,-0.27085 0.19699,-0.44938 0.19904,-0.18057 0.50684,-0.18057 0.32421,0 0.5212,0.18878 0.19698,0.18878 0.19698,0.48427 h -0.36114 q 0,-0.1498 -0.10055,-0.25445 -0.10054,-0.1067 -0.25649,-0.1067 -0.16006,0 -0.25239,0.0841 -0.0903,0.0821 -0.0903,0.22161 0,0.11081 0.0657,0.17852 0.0677,0.0677 0.32216,0.17852 0.40424,0.15801 0.54993,0.30985 0.14569,0.14979 0.14569,0.38167 0,0.28932 -0.19904,0.46374 -0.19904,0.17236 -0.53351,0.17236 -0.34679,0 -0.56224,-0.19904 -0.21546,-0.19904 -0.21546,-0.50478 h 0.36525 q 0.006,0.18468 0.11286,0.28933 0.1067,0.10465 0.29959,0.10465 0.18057,0 0.27496,-0.08 0.0944,-0.0821 0.0944,-0.21956 z" />
    </g>
  </g>
</svg>
